<mxfile host="app.diagrams.net" modified="2023-11-01T18:56:16.470Z" agent="Mozilla/5.0 (Windows NT 10.0; Win64; x64) AppleWebKit/537.36 (KHTML, like Gecko) Chrome/118.0.0.0 Safari/537.36" version="22.0.8" etag="P54ABLEav_hsjgqUbTGs" type="github">
  <diagram name="PÃ¡gina-1" id="GMEsVAINNBaTcpao7fsB">
    <mxGraphModel>
      <root>
        <mxCell id="0" />
        <mxCell id="1" parent="0" />
      </root>
    </mxGraphModel>
  </diagram>
</mxfile>
